<?xml version="1.0" encoding="utf-8"?>
<!-- Generator: Adobe Illustrator 26.1.0, SVG Export Plug-In . SVG Version: 6.00 Build 0)  -->
<svg version="1.1" id="레이어_1" xmlns="http://www.w3.org/2000/svg" xmlns:xlink="http://www.w3.org/1999/xlink" x="0px"
	 y="0px" viewBox="0 0 500 600" style="enable-background:new 0 0 500 600;" xml:space="preserve">
<style type="text/css">
	.st0{fill:none;stroke:#000000;stroke-miterlimit:10;}
	.st1{fill:#FF0000;}
</style>
<path class="st0" d="M53.5,40.5c101,66,68.75,167.17,24,239c-38,61-41,214,130,223s240-171,179-255"/>
<path class="st0" d="M45.5,87.5c151,9,124,190,211,236s185-21,188-104"/>
<line class="st0" x1="386.5" y1="247.5" x2="297.5" y2="158.5"/>
<g>
	<rect x="213.7" y="74.7" class="st1" width="83.3" height="83.3"/>
	<path d="M296.5,75.2v82.3h-82.3V75.2H296.5 M297.5,74.2h-84.3v84.3h84.3V74.2L297.5,74.2z"/>
</g>
<path class="st0" d="M62.27,203c-28.62,76.66,37.12,130.33,120.75,121.39l99.28,127.45l36.22-53.22
	c-43.38-38.01-120.3-12.97-123.43,28.62s45.61,55.45,45.61,55.45"/>
<ellipse transform="matrix(0.5803 -0.8144 0.8144 0.5803 -107.2733 310.5369)" class="st0" cx="247.63" cy="259.34" rx="12.32" ry="31.08"/>
<g>
	
		<rect x="93.57" y="389.23" transform="matrix(0.3738 -0.9275 0.9275 0.3738 -310.2363 370.835)" class="st1" width="51.88" height="51.88"/>
</g>
</svg>
