<?xml version="1.0" encoding="utf-8"?>
<!-- Generator: Adobe Illustrator 26.5.0, SVG Export Plug-In . SVG Version: 6.00 Build 0)  -->
<svg version="1.1" id="Layer_1" xmlns="http://www.w3.org/2000/svg" xmlns:xlink="http://www.w3.org/1999/xlink" x="0px" y="0px"
	 viewBox="0 0 5340 7800" style="enable-background:new 0 0 5340 7800;" xml:space="preserve">
<style type="text/css">
	.st0{fill:none;stroke:#E30613;stroke-miterlimit:10;}
	.st1{fill:none;stroke:#D80D15;stroke-miterlimit:10;}
	.st2{fill:none;stroke:#CD1417;stroke-miterlimit:10;}
	.st3{fill:none;stroke:#C31B19;stroke-miterlimit:10;}
	.st4{fill:none;stroke:#B8211C;stroke-miterlimit:10;}
	.st5{fill:none;stroke:#AD281E;stroke-miterlimit:10;}
	.st6{fill:none;stroke:#A22F20;stroke-miterlimit:10;}
	.st7{fill:none;stroke:#973622;stroke-miterlimit:10;}
	.st8{fill:none;stroke:#8D3D24;stroke-miterlimit:10;}
	.st9{fill:none;stroke:#824426;stroke-miterlimit:10;}
	.st10{fill:none;stroke:#774B28;stroke-miterlimit:10;}
	.st11{fill:none;stroke:#6C512B;stroke-miterlimit:10;}
	.st12{fill:none;stroke:#61582D;stroke-miterlimit:10;}
	.st13{fill:none;stroke:#565F2F;stroke-miterlimit:10;}
	.st14{fill:none;stroke:#4C6631;stroke-miterlimit:10;}
	.st15{fill:none;stroke:#416D33;stroke-miterlimit:10;}
	.st16{fill:none;stroke:#367435;stroke-miterlimit:10;}
	.st17{fill:none;stroke:#2B7B37;stroke-miterlimit:10;}
	.st18{fill:none;stroke:#20813A;stroke-miterlimit:10;}
	.st19{fill:none;stroke:#16883C;stroke-miterlimit:10;}
	.st20{fill:none;stroke:#0B8F3E;stroke-miterlimit:10;}
	.st21{fill:none;stroke:#009640;stroke-miterlimit:10;}
	.st22{fill:none;stroke:#000000;stroke-width:0.01;stroke-miterlimit:10;}
</style>
<path class="st0" d="M500,500c1085,243.67,3255,1378.44,2170,1350s1-1500.78,1085.5-1250s-1084.5,1906.22,0,1700S3755,1270,2670,950
	S500,1652.22,1585,2150s0-1650,0-1650"/>
<path class="st1" d="M706.67,500c981.69,250.01,2996.71,1345.57,2015.02,1342.86S2567.62,384.98,3600.48,623.81
	s-826.19,1835.57,103.33,1669.05s-0.43-1055.03-982.12-1351.67S603.33,1689.09,1585,2135.71S1636.71,505.84,1688.36,500"/>
<path class="st2" d="M913.33,500c878.38,256.36,2738.43,1312.69,1860.05,1335.71c-878.38,23.03-309.14-1414.99,672.07-1188.1
	s-567.88,1764.91,206.67,1638.1s-0.36-1080.06-878.74-1353.33S706.67,1725.97,1585,2121.43S1688.43,511.67,1791.71,500"/>
<path class="st3" d="M1120,500c775.07,262.71,2480.14,1279.81,1705.07,1328.57S2360.86,456.48,3290.43,671.43
	s-309.57,1694.25,310,1607.14c619.57-87.11-0.29-1105.1-775.36-1355S810,1762.84,1585,2107.14S1740.14,517.51,1895.07,500"/>
<path class="st4" d="M1326.67,500c671.76,269.06,2221.86,1246.93,1550.1,1321.43s-619.29-1329.2,258.64-1126.19
	s-51.26,1623.6,413.33,1576.19c464.6-47.41-0.21-1130.13-671.98-1356.67S913.33,1799.71,1585,2092.86S1791.86,523.34,1998.43,500"/>
<path class="st5" d="M1533.33,500c568.45,275.41,1963.57,1214.05,1395.12,1314.29C2360,1914.52,2154.1,527.98,2980.38,719.05
	s207.05,1552.94,516.67,1545.24s-0.14-1155.16-568.6-1358.33S1016.67,1836.58,1585,2078.57S1843.57,529.18,2101.79,500"/>
<path class="st6" d="M1740,500c465.14,281.76,1705.29,1181.17,1240.14,1307.14S2050.71,563.73,2825.36,742.86
	s465.36,1482.29,620,1514.29s-0.07-1180.19-465.21-1360S1120,1873.45,1585,2064.29C2050,2255.12,1895.29,535.02,2205.14,500"/>
<path class="st7" d="M1946.67,500c361.83,288.11,1447,1148.3,1085.17,1300s-1084.5-1200.52-361.5-1033.33S3394,2178.3,3393.67,2250
	s0-1205.22-361.83-1361.67S1223.33,1910.32,1585,2050s362-1509.15,723.5-1550"/>
<path class="st8" d="M2153.33,500c258.52,294.46,1188.71,1115.42,930.19,1292.86S1843.95,635.23,2515.31,790.48
	s981.98,1340.97,826.67,1452.38s0.07-1230.25-258.45-1363.33S1326.67,1947.19,1585,2035.71S1998.71,546.68,2411.86,500"/>
<path class="st9" d="M2360,500c155.21,300.81,930.43,1082.54,775.21,1285.71C2980,1988.89,1740.57,670.98,2360.29,814.29
	s1240.29,1270.32,930,1421.43s0.14-1255.29-155.07-1365C2980,761,1430,1984.07,1585,2021.43c155,37.36,465.43-1468.9,930.21-1521.43
	"/>
<path class="st10" d="M2566.67,500c51.9,307.16,672.14,1049.66,620.24,1278.57S1637.19,706.74,2205.26,838.1
	s1498.6,1199.66,1033.33,1390.48s0.21-1280.32-51.69-1366.67S1533.33,2020.94,1585,2007.14S2102.14,558.36,2618.57,500"/>
<path class="st11" d="M2773.33,500c-51.4,313.51,413.86,1016.78,465.26,1271.43S1533.81,742.49,2050.24,861.9
	s1756.9,1129.01,1136.67,1359.52c-620.24,230.52,0.29-1305.35,51.69-1368.33S1636.67,2057.81,1585,1992.86
	S2153.86,564.2,2721.93,500"/>
<path class="st12" d="M2980,500c-154.71,319.86,155.57,983.91,310.29,1264.29C3445,2044.67,1430.43,778.24,1895.21,885.71
	s2015.21,1058.35,1240,1328.57s0.36-1330.38,155.07-1370C3445,804.67,1740,2094.68,1585,1978.57S2205.57,570.03,2825.29,500"/>
<path class="st13" d="M3186.67,500c-258.02,326.21-102.71,951.03,155.31,1257.14S1327.05,813.99,1740.19,909.52
	s2273.52,987.69,1343.33,1297.62s0.43-1355.41,258.45-1371.67S1843.33,2131.55,1585,1964.29S2257.29,575.87,2928.64,500"/>
<path class="st14" d="M3393.33,500c-361.33,332.55-361,918.15,0.33,1250s-2170-900.26-1808.5-816.67S4117,1850.37,3031.83,2200
	s0.5-1380.44,361.83-1373.33C3755,833.78,1946.67,2168.42,1585,1950S2309,581.7,3032,500"/>
<path class="st15" d="M3600,500c-464.64,338.9-619.29,885.27-154.64,1242.86S1120.29,885.49,1430.14,957.14
	s2790.14,846.38,1550,1235.71s0.57-1405.48,465.21-1375C3910,848.33,2050,2205.3,1585,1935.71S2360.71,587.54,3135.36,500"/>
<path class="st16" d="M3806.67,500c-567.95,345.25-877.57,852.39-309.62,1235.71S1016.9,921.24,1275.12,980.95
	s3048.45,775.73,1653.33,1204.76s0.64-1430.51,568.6-1376.67S2153.33,2242.17,1585,1921.43S2412.43,593.38,3238.71,500"/>
<path class="st17" d="M4013.33,500c-671.26,351.6-1135.86,819.51-464.6,1228.57S913.52,956.99,1120.1,1004.76
	c206.57,47.77,3306.76,705.07,1756.67,1173.81s0.71-1455.54,671.98-1378.33S2256.67,2279.04,1585,1907.14
	S2464.14,599.21,3342.07,500"/>
<path class="st18" d="M4220,500c-774.57,357.95-1394.14,786.64-619.57,1221.43S810.14,992.75,965.07,1028.57
	s3565.07,634.41,1860,1142.86s0.79-1480.57,775.36-1380S2360,2315.91,1585,1892.86S2515.86,605.05,3445.43,500"/>
<path class="st19" d="M4426.67,500c-877.88,364.3-1652.43,753.76-774.55,1214.29S706.76,1028.5,810.05,1052.38
	s3823.38,563.76,1963.33,1111.9s0.86-1505.6,878.74-1381.67S2463.33,2352.78,1585,1878.57S2567.57,610.88,3548.79,500"/>
<path class="st20" d="M4633.33,500c-981.19,370.65-1910.71,720.88-929.52,1207.14S603.38,1064.25,655.02,1076.19
	s4081.69,493.1,2066.67,1080.95s0.93-1530.63,982.12-1383.33S2566.67,2389.65,1585,1864.29S2619.29,616.72,3652.14,500"/>
<path class="st21" d="M4840,500c-1084.5,377-2169,688-1084.5,1200S500,1100,500,1100s4340,422.45,2170,1050s1-1555.67,1085.5-1385
	S2670,2426.53,1585,1850S2671,622.56,3755.5,500"/>
<rect x="3820" y="2900" class="st0" width="1000" height="1000"/>
<rect x="3830" y="2910" class="st0" width="980" height="980"/>
<rect x="3840" y="2920" class="st0" width="960" height="960"/>
<rect x="3850" y="2930" class="st0" width="940" height="940"/>
<rect x="3860" y="2940" class="st0" width="920" height="920"/>
<rect x="3870" y="2950" class="st0" width="900" height="900"/>
<rect x="3880" y="2960" class="st0" width="880" height="880"/>
<rect x="3890" y="2970" class="st0" width="860" height="860"/>
<rect x="3900" y="2980" class="st0" width="840" height="840"/>
<rect x="3910" y="2990" class="st0" width="820" height="820"/>
<rect x="3920" y="3000" class="st0" width="800" height="800"/>
<rect x="3930" y="3010" class="st0" width="780" height="780"/>
<rect x="3940" y="3020" class="st0" width="760" height="760"/>
<rect x="3950" y="3030" class="st0" width="740" height="740"/>
<rect x="3960" y="3040" class="st0" width="720" height="720"/>
<rect x="3970" y="3050" class="st0" width="700" height="700"/>
<rect x="3980" y="3060" class="st0" width="680" height="680"/>
<rect x="3990" y="3070" class="st0" width="660" height="660"/>
<rect x="4000" y="3080" class="st0" width="640" height="640"/>
<rect x="4010" y="3090" class="st0" width="620" height="620"/>
<rect x="4020" y="3100" class="st0" width="600" height="600"/>
<rect x="4030" y="3110" class="st0" width="580" height="580"/>
<rect x="4040" y="3120" class="st0" width="560" height="560"/>
<rect x="4050" y="3130" class="st0" width="540" height="540"/>
<rect x="4060" y="3140" class="st0" width="520" height="520"/>
<rect x="4070" y="3150" class="st0" width="500" height="500"/>
<rect x="4080" y="3160" class="st0" width="480" height="480"/>
<rect x="4090" y="3170" class="st0" width="460" height="460"/>
<rect x="4100" y="3180" class="st0" width="440" height="440"/>
<rect x="4110" y="3190" class="st0" width="420" height="420"/>
<rect x="4120" y="3200" class="st0" width="400" height="400"/>
<rect x="4130" y="3210" class="st0" width="380" height="380"/>
<rect x="4140" y="3220" class="st0" width="360" height="360"/>
<rect x="4150" y="3230" class="st0" width="340" height="340"/>
<rect x="4160" y="3240" class="st0" width="320" height="320"/>
<rect x="4170" y="3250" class="st0" width="300" height="300"/>
<rect x="4180" y="3260" class="st0" width="280" height="280"/>
<rect x="4190" y="3270" class="st0" width="260" height="260"/>
<rect x="4200" y="3280" class="st0" width="240" height="240"/>
<rect x="4210" y="3290" class="st0" width="220" height="220"/>
<rect x="4220" y="3300" class="st0" width="200" height="200"/>
<rect x="4230" y="3310" class="st0" width="180" height="180"/>
<rect x="4240" y="3320" class="st0" width="160" height="160"/>
<rect x="4250" y="3330" class="st0" width="140" height="140"/>
<rect x="4260" y="3340" class="st0" width="120" height="120"/>
<rect x="4270" y="3350" class="st0" width="100" height="100"/>
<circle class="st0" cx="1020" cy="3400" r="500"/>
<path class="st0" d="M1508.89,3400c0,270.01-218.27,490-488.89,490s-490-219.38-490-490s219.38-490,490-490
	S1508.89,3129.99,1508.89,3400z"/>
<path class="st0" d="M1497.78,3400c0,263.87-212.68,480-477.78,480s-480-214.9-480-480s214.9-480,480-480
	S1497.78,3136.13,1497.78,3400z"/>
<path class="st0" d="M1486.67,3400c0,257.73-207.09,470-466.67,470s-470-210.43-470-470s210.43-470,470-470
	S1486.67,3142.27,1486.67,3400z"/>
<path class="st0" d="M1475.56,3400c0,251.6-201.5,460-455.56,460s-460-205.95-460-460s205.95-460,460-460
	S1475.56,3148.4,1475.56,3400z"/>
<path class="st0" d="M1464.44,3400c0,245.46-195.92,450-444.44,450s-450-201.47-450-450s201.47-450,450-450
	S1464.44,3154.54,1464.44,3400z"/>
<path class="st0" d="M1453.33,3400c0,239.32-190.33,440-433.33,440s-440-196.99-440-440s196.99-440,440-440
	S1453.33,3160.68,1453.33,3400z"/>
<path class="st0" d="M1442.22,3400c0,233.19-184.74,430-422.22,430s-430-192.52-430-430s192.52-430,430-430
	S1442.22,3166.81,1442.22,3400z"/>
<path class="st0" d="M1431.11,3400c0,227.05-179.15,420-411.11,420s-420-188.04-420-420s188.04-420,420-420
	S1431.11,3172.95,1431.11,3400z"/>
<path class="st0" d="M1420,3400c0,220.91-173.56,410-400,410s-410-183.56-410-410s183.56-410,410-410S1420,3179.09,1420,3400z"/>
<path class="st0" d="M1408.89,3400c0,214.78-167.97,400-388.89,400s-400-179.09-400-400s179.09-400,400-400
	S1408.89,3185.22,1408.89,3400z"/>
<path class="st0" d="M1397.78,3400c0,208.64-162.39,390-377.78,390s-390-174.61-390-390s174.61-390,390-390
	S1397.78,3191.36,1397.78,3400z"/>
<path class="st0" d="M1386.67,3400c0,202.5-156.8,380-366.67,380s-380-170.13-380-380s170.13-380,380-380
	S1386.67,3197.5,1386.67,3400z"/>
<path class="st0" d="M1375.56,3400c0,196.37-151.21,370-355.56,370s-370-165.65-370-370s165.65-370,370-370
	S1375.56,3203.63,1375.56,3400z"/>
<path class="st0" d="M1364.44,3400c0,190.23-145.62,360-344.44,360s-360-161.18-360-360s161.18-360,360-360
	S1364.44,3209.77,1364.44,3400z"/>
<path class="st0" d="M1353.33,3400c0,184.09-140.03,350-333.33,350s-350-156.7-350-350s156.7-350,350-350
	S1353.33,3215.91,1353.33,3400z"/>
<path class="st0" d="M1342.22,3400c0,177.96-134.45,340-322.22,340s-340-152.22-340-340s152.22-340,340-340
	S1342.22,3222.04,1342.22,3400z"/>
<path class="st0" d="M1331.11,3400c0,171.82-128.86,330-311.11,330s-330-147.75-330-330s147.75-330,330-330
	S1331.11,3228.18,1331.11,3400z"/>
<path class="st0" d="M1320,3400c0,165.69-123.27,320-300,320s-320-143.27-320-320s143.27-320,320-320S1320,3234.31,1320,3400z"/>
<path class="st0" d="M1308.89,3400c0,159.55-117.68,310-288.89,310s-310-138.79-310-310s138.79-310,310-310
	S1308.89,3240.45,1308.89,3400z"/>
<path class="st0" d="M1297.78,3400c0,153.41-112.09,300-277.78,300s-300-134.31-300-300s134.31-300,300-300
	S1297.78,3246.59,1297.78,3400z"/>
<path class="st0" d="M1286.67,3400c0,147.28-106.5,290-266.67,290s-290-129.84-290-290s129.84-290,290-290
	S1286.67,3252.72,1286.67,3400z"/>
<path class="st0" d="M1275.56,3400c0,141.14-100.92,280-255.56,280s-280-125.36-280-280s125.36-280,280-280
	S1275.56,3258.86,1275.56,3400z"/>
<path class="st0" d="M1264.44,3400c0,135-95.33,270-244.44,270s-270-120.88-270-270s120.88-270,270-270S1264.44,3265,1264.44,3400z"
	/>
<path class="st0" d="M1253.33,3400c0,128.87-89.74,260-233.33,260s-260-116.41-260-260s116.41-260,260-260
	S1253.33,3271.13,1253.33,3400z"/>
<path class="st0" d="M1242.22,3400c0,122.73-84.15,250-222.22,250s-250-111.93-250-250s111.93-250,250-250
	S1242.22,3277.27,1242.22,3400z"/>
<path class="st0" d="M1231.11,3400c0,116.59-78.56,240-211.11,240s-240-107.45-240-240s107.45-240,240-240
	S1231.11,3283.41,1231.11,3400z"/>
<path class="st0" d="M1220,3400c0,110.46-72.97,230-200,230s-230-102.97-230-230s102.97-230,230-230S1220,3289.54,1220,3400z"/>
<path class="st0" d="M1208.89,3400c0,104.32-67.39,220-188.89,220s-220-98.5-220-220s98.5-220,220-220S1208.89,3295.68,1208.89,3400
	z"/>
<path class="st0" d="M1197.78,3400c0,98.18-61.8,210-177.78,210s-210-94.02-210-210s94.02-210,210-210S1197.78,3301.82,1197.78,3400
	z"/>
<path class="st0" d="M1186.67,3400c0,92.05-56.21,200-166.67,200s-200-89.54-200-200s89.54-200,200-200
	S1186.67,3307.95,1186.67,3400z"/>
<path class="st0" d="M1175.56,3400c0,85.91-50.62,190-155.56,190s-190-85.07-190-190s85.07-190,190-190
	S1175.56,3314.09,1175.56,3400z"/>
<path class="st0" d="M1164.44,3400c0,79.77-45.03,180-144.44,180s-180-80.59-180-180s80.59-180,180-180
	S1164.44,3320.23,1164.44,3400z"/>
<path class="st0" d="M1153.33,3400c0,73.64-39.44,170-133.33,170s-170-76.11-170-170s76.11-170,170-170
	S1153.33,3326.36,1153.33,3400z"/>
<path class="st0" d="M1142.22,3400c0,67.5-33.86,160-122.22,160s-160-71.63-160-160s71.63-160,160-160S1142.22,3332.5,1142.22,3400z
	"/>
<path class="st0" d="M1131.11,3400c0,61.36-28.27,150-111.11,150s-150-67.16-150-150s67.16-150,150-150
	S1131.11,3338.64,1131.11,3400z"/>
<path class="st0" d="M1120,3400c0,55.23-22.68,140-100,140s-140-62.68-140-140s62.68-140,140-140S1120,3344.77,1120,3400z"/>
<path class="st0" d="M1108.89,3400c0,49.09-17.09,130-88.89,130s-130-58.2-130-130s58.2-130,130-130S1108.89,3350.91,1108.89,3400z"
	/>
<path class="st0" d="M1097.78,3400c0,42.96-11.5,120-77.78,120s-120-53.73-120-120s53.73-120,120-120S1097.78,3357.04,1097.78,3400z
	"/>
<path class="st0" d="M1086.67,3400c0,36.82-5.92,110-66.67,110s-110-49.25-110-110s49.25-110,110-110
	C1080.75,3290,1086.67,3363.18,1086.67,3400z"/>
<path class="st0" d="M1075.56,3400c0,30.68-0.33,100-55.56,100c-55.23,0-100-44.77-100-100s44.77-100,100-100
	C1075.23,3300,1075.56,3369.32,1075.56,3400z"/>
<path class="st0" d="M1064.44,3400c0,24.55,5.26,90-44.44,90c-49.71,0-90-40.29-90-90s40.29-90,90-90S1064.44,3375.45,1064.44,3400z
	"/>
<path class="st0" d="M1053.33,3400c0,18.41,10.85,80-33.33,80s-80-35.82-80-80s35.82-80,80-80
	C1064.18,3320,1053.33,3381.59,1053.33,3400z"/>
<path class="st0" d="M1042.22,3400c0,12.27,16.44,70-22.22,70s-70-31.34-70-70s31.34-70,70-70
	C1058.66,3330,1042.22,3387.73,1042.22,3400z"/>
<path class="st0" d="M1031.11,3400c0,6.14,22.03,60-11.11,60s-60-26.86-60-60s26.86-60,60-60S1031.11,3393.86,1031.11,3400z"/>
<path class="st0" d="M1020,3400c0,0,27.61,50,0,50s-50-22.39-50-50s22.39-50,50-50S1020,3400,1020,3400z"/>
<path class="st22" d="M2011.04,2994.52c3.71-0.16,7.43-0.39,11.13-0.71c5.11-0.72,10.24-1.18,15.4-1.38
	c9.7-1.09,19.32-0.23,28.87,2.58c10.26,3.58,20.51,7.15,30.77,10.73c23.36,8.97,44.68,21.38,63.99,37.25
	c6.35,6.94,12.69,13.89,19.04,20.83c7.26,6.6,9.4,13.99,6.4,22.16c-6.46,3.77-13.17,3.84-20.13,0.23
	c-8.23-4.61-13.33-11.5-15.29-20.67c-2.41-8.26-0.57-15.6,5.51-22.03c8.65-8.19,18.76-12.68,30.32-13.48
	c11.59-3.56,23.36-3.71,35.31-0.46c11.1,2.71,19.68,8.8,25.76,18.27c4.3,5.86,4.54,11.68,0.71,17.49
	c-3.61,4.36-8.17,6.62-13.69,6.79c-2.73-4.43-3.19-9.2-1.37-14.31c1.67-2.9,3.34-5.8,5.01-8.7c19.78-11.68,41.13-19.31,64.05-22.87
	c22.67-5.95,44.72-5.14,66.14,2.45c20.11,3.07,38.25,11.11,54.4,24.12c11.8,4.89,17.66,12.55,17.58,23
	c2.35,7.17-1.14,11.8-10.47,13.88c-11.56,5.96-23.81,8.94-36.74,8.94c-3.75-8.21-2.4-15.58,4.05-22.11
	c5.77-11.97,13.15-22.92,22.15-32.84"/>
<path class="st22" d="M2097.56,3179.41c-0.07,4.49-0.29,9.14,0.44,13.59c3.74,12.32,10.31,23.1,19.69,32.35
	c11.32,13.77,25.45,22.89,42.39,27.38c9.43,1.54,18.51,0.42,27.26-3.35c9.17-4.67,15.47-11.89,18.88-21.67
	c3.13-8.65,4.56-17.54,4.3-26.7c1.14-3.97,0.16-6.54-2.96-7.71c-3.42,2.4-5.58,5.74-6.49,10.01c-3.22,9.28-5.35,18.81-6.38,28.58
	c-1.88,7.27,0.27,12.36,6.45,15.27c4.22,0.95,8.43,1.95,12.63,3.01c6.27,1.85,12.72,2.49,19.35,1.94
	c20.07-0.86,38.84-6.32,56.31-16.39c15.51-12.29,25.44-28.09,29.79-47.39c3.04-7.76,4.35-15.7,3.93-23.82
	c-1.11,1.32-0.49,6.49-0.52,8.13c-0.33,16.9-0.38,33.8-0.81,50.69c-0.16,6.39-0.91,13.14-0.04,19.49c0.46,3.38,1.39,6.24,3.5,8.95
	c0.07-3.99,0.1-7.97,0.1-11.96c1.42-7.49,2.85-14.98,4.27-22.46c4.78-18.1,12.57-34.76,23.37-49.97
	c3.74-5.75,8.45-10.37,14.13-13.87c1.91-2.55,4.18-3.04,6.8-1.45c1.35,2.19,2.72,4.37,4.09,6.54c1.07,1.69,3.67,4.01,3.98,6"/>
<path class="st22" d="M2098.15,3365.48c-1.96,2.44-1.99,5.07-2.29,8.15c-1.09,11.45,0.35,22.71,2.11,34.02
	c1.5,13.28,4.64,26.2,9.42,38.76c2.59,4.53,5.18,9.07,7.77,13.6c2.77,1.38,5.55,2.76,8.32,4.14c3.64,0.68,7.27,1.35,10.91,2.03
	c7.83,1.32,15.52,0.9,23.07-1.26c6.54-0.21,12.25-2.54,17.11-6.99c6.68-2.5,11.26-7.1,13.74-13.8c5.75-6.97,8.64-15.1,8.66-24.38
	c-0.39-3.73-0.78-7.46-1.18-11.19c-1.47-3.2-2.95-6.39-4.42-9.59c-2.27-1.8-4.55-3.61-6.82-5.41c-6.06,0.66-10.35,3.75-12.86,9.27
	c-5.28,5.9-9.25,12.63-11.93,20.18c-6,10.71-10.82,21.93-14.46,33.67c-6.12,11.73-9.42,24.17-9.88,37.33
	c-5.46,15.13-2.24,28.76,9.68,40.9c8.03,4.64,16.06,9.29,24.09,13.93c12.47,1.19,24.94,2.37,37.41,3.56
	c17.02-2.02,34.03-4.04,51.05-6.06c21.04-1.75,40.14-8.26,57.3-19.51c9.59-3.94,17.72-9.87,24.37-17.78
	c7.64-4.93,12.79-11.68,15.43-20.26c6.97-10.13,8.22-21.41,3.77-33.83c-1.67-8.36-3.34-16.72-5-25.09
	c-1.34-6.38-2.69-12.75-4.03-19.13c-0.89-3.14-1.78-6.28-2.67-9.42c-0.48-1.74-1.46-2.81-2.94-3.21c-1.03-0.1-1.19-0.69-0.49-1.79
	c-4.76,3.05-8.27,7.39-10.54,13c-14.95,19.8-29.18,40.12-42.69,60.96c-10.36,16.96-20.72,33.93-31.08,50.89
	c-13.29,19.16-20.49,40.1-21.61,62.85c6.97,7.8,14.01,7.77,21.12-0.09c19.23-8.96,34.22-23.33,44.96-43.13
	c11.92-16.94,23.84-33.88,35.76-50.82c26.6-48.72,48.53-99.51,65.78-152.36"/>
<path class="st22" d="M2971.98,3094.42c-6.96-3.25-7.57-13.69-3.11-19.94c4.46-6.25,12.05-9.31,19.24-12.02
	c64.65-24.35,130.41-45.75,197.01-64.1c13.91-3.83,28.08-7.56,42.5-7.32s29.38,4.93,39.08,15.61c16.31,17.96,12.17,48.57-4.91,65.8
	s-43.4,22.57-67.49,19.64c-24.09-2.93-46.63-13.05-68.74-23.04c26.89-21.68,59.25-36.52,93.22-42.76
	c23.5-4.31,49.22-4.15,69.52,8.45c24.75,15.37,36.22,47.63,30.72,76.24c-5.5,28.61-25.92,53-51.16,67.54
	c-25.24,14.54-54.87,20.05-84,20.38c-43.19,0.49-86.46-10.05-124.58-30.36c41.45-1.1,83.15,12.03,116.5,36.69
	c14.7,10.87,28.05,24.26,35.76,40.85c7.7,16.59,9.12,36.73,0.7,52.97c-8.41,16.24-27.73,27.07-45.52,22.83
	c-21.94-51.22-28.72-108.82-19.27-163.73c2.42-14.05,5.97-28.17,13.39-40.35c7.42-12.18,19.2-22.29,33.2-24.95
	c22.21-4.22,43.29,10.47,60.3,25.36c28.09,24.61,53.66,52.1,76.16,81.9"/>
<path class="st22" d="M3124.91,3363.43c1.63,16.38,5.34,32.55,11.01,48c3.15,8.6,7.61,17.71,16.01,21.39
	c5.42,2.38,11.74,2.03,17.35,0.14c5.6-1.9,10.6-5.24,15.33-8.8c6.93-5.21,13.45-10.97,19.48-17.21c2.49-2.58,4.94-5.3,6.42-8.57
	c1.47-3.27,1.85-7.21,0.18-10.39c-2.24-4.27-7.79-6.1-12.47-4.95c-4.68,1.15-8.46,4.75-10.91,8.9c-2.45,4.15-3.74,8.87-5.01,13.51
	c-1.33,4.86-2.67,9.78-2.75,14.82c-0.08,5.04,1.22,10.29,4.59,14.03c3.42,3.8,8.52,5.61,13.53,6.63
	c13.32,2.71,27.55,0.67,39.57-5.67s21.74-16.95,27.01-29.47c2.51-5.97,4.05-12.57,2.86-18.94s-5.51-12.41-11.71-14.29
	c-5.88,21-7.21,43.26-3.89,64.81c3.99-5.42,7.99-10.85,11.98-16.27"/>
<path class="st22" d="M3070.9,3476.06c-1.58,23.86,15.56,47.62,38.7,53.65c23.13,6.03,49.7-6.34,59.97-27.93
	c-2.25,6.63-4.52,13.41-4.5,20.41c0.02,7,2.75,14.39,8.61,18.22c6.02,3.93,13.81,3.36,20.97,2.65c22.07-2.19,44.14-4.39,66.21-6.58
	c-10.72,14.82-28.33,24.43-46.59,25.44c-5.12,0.28-10.69-0.24-14.54-3.62c-4.99-4.38-5.41-11.96-4.57-18.54
	c2.15-16.91,10.53-33.24,24.05-43.61c13.53-10.37,32.26-14.16,48.3-8.4c16.04,5.76,28.4,21.52,28.71,38.56
	c0.16,8.51-3.11,17.74-10.53,21.92c-9.11,5.14-21.15,0.71-28.18-7.05c-7.91-8.74-11.18-21.72-7.47-32.91s14.62-19.85,26.41-20.06
	c12.86-0.22,24.67,9.45,29,21.56c4.32,12.11,1.94,25.93-4.28,37.19c-1.6-1.3-3.19-2.6-4.79-3.89c20.5-31.93,44.58-61.56,71.66-88.15
	"/>
<path class="st22" d="M2667.45,3540.54c-17.12,12.01-34.24,24.02-51.36,36.04c24.58-9.92,49.17-19.84,73.75-29.76
	c-18.52,18.82-37.05,37.64-55.57,56.46c28.37-11.21,56.73-22.41,85.1-33.62c-18.67,8.44-37.35,16.87-56.02,25.31
	c11.98-5.84,23.96-11.69,35.93-17.53c-2.61,1.99-5.21,3.99-7.82,5.98c30.84-2.65,61.68-5.31,92.51-7.96
	c-9.57,6.95-19.14,13.9-28.72,20.85c5.5,3.07,6.92,10.85,4.48,16.66c-2.44,5.81-7.74,9.9-13.22,13
	c-13.85,7.83-30.3,10.97-46.06,8.78c-8.51-22.7,3.12-51,25.13-61.17s51.09-0.67,62.86,20.52c-30.13,16.8-67.02,13.24-101.27,9.19
	c-11.09-1.31-22.35-2.66-32.65-6.97c-10.3-4.31-19.7-12.06-23.39-22.6c-3.69-10.54-0.25-23.87,9.49-29.35
	c7.88,4.67,6.11,16.58,2.16,24.85c-9.48,19.84-25.8,36.32-45.54,46c12.37-14.58,32.48-22.18,51.4-19.4
	c4.58,11.3,1.09,25.37-8.25,33.21c20.28-15.04,47.9-19.66,71.97-12.03c-5.96,14.63-18.38,26.48-33.27,31.75
	c4.23-6.77,11.7-11.41,19.65-12.19c0.38,1.55,0.76,3.09,1.15,4.64"/>
<path class="st22" d="M2586.44,3693.78c-0.08,17.64-0.16,35.27-0.24,52.91c0.58-19.7,1.15-39.39,1.73-59.09
	c15.55,27.22,31.11,54.45,46.66,81.67c3.04-23.58,6.08-47.16,9.13-70.74c14.67,27.21,29.34,54.41,44.02,81.62
	c0.96-21.33,7.08-42.41,17.67-60.94c6.22,12.36,12.45,24.71,18.67,37.07c22.2-30.07,53.18-53.57,88.12-66.84
	c2.59,23.96,5.17,47.93,7.76,71.89c-12.44-19.77-18.53-43.46-17.18-66.78c3.98,12.67-5.66,25.31-15.24,34.5
	c-47.61,45.67-111.71,73.79-177.56,77.88c43.54-32.12,91.39-58.39,141.86-77.88c-43.39,36.65-92.92,66.01-145.9,86.5
	c-1-1.35-2-2.7-3-4.05c34.96-56.11,80.78-105.44,134.16-144.45c-41.57,11.74-83.15,23.48-124.72,35.22
	c5.39,10.11,10.78,20.21,16.17,30.32c-15.04,1.56-30.08,3.12-45.12,4.68c5.45,0.62,10.9,1.23,16.35,1.85"/>
<path class="st22" d="M2632.67,4136.44c1.83-7.4,8.48-14.66,12.62-20.82c12.32-18.36,24.7-37.26,39.04-54.13
	c0.03,0.94,0.07,1.88,0.1,2.82c-8.33,16.71-17.76,32.77-28.29,48.19c-18.86,29.9-38.24,59.45-57.91,88.83
	c-1.17-3.23-0.85-6.56,0.95-9.96c6.2-16.34,15.75-30.41,28.65-42.22c18.49-24.18,41.4-43.62,68.73-58.3
	c21.38-17.56,44.16-22.59,68.34-15.1c-5.58,8.47-11.16,16.95-16.75,25.42c-21.81,15.96-43.62,31.92-65.43,47.88
	c-31.83,15.19-63.66,30.38-95.48,45.56c-32.98,24.51-63.69,28.01-92.11,10.5c-14.68-1.89-20.93-10.24-18.76-25.07
	c-2.98-11.12-4.27-22.43-3.86-33.92c-1.74-9.27-1.08-18.32,1.98-27.12c0.85-9.09,4.44-17.03,10.76-23.82
	c4.13,5.81,4.63,12.09,1.51,18.84c-0.3,8.2-2.54,15.85-6.71,22.95c-4.34-1.49-6.48-4.92-9.58-8.38
	c10.81-14.68,25.33-24.25,43.57-28.7c40.86-21.52,84.29-36.45,130.28-44.79c36.19-6.59,72.38-13.18,108.57-19.77
	c36.4-14.29,70.7-13.35,102.91,2.82c-7.98,9.32-15.95,18.64-23.93,27.97c-45.31,27.99-94.06,46.46-146.25,55.41
	c-38.84,12.25-78.49,20.48-118.96,24.67c-31.37,7.11-63.08,10.1-95.14,8.97c14.83-11.38,31.08-20.19,48.73-26.42
	c32.53-15.75,66.39-28.09,101.58-37.02c36.33-7.59,72.66-15.19,108.98-22.78c45.72-13.2,91.74-17.03,138.08-11.49
	c-10.36,5.24-20.72,10.47-31.08,15.71c-37.45,12.96-75.83,21.36-115.12,25.22c-23.81,4.54-47.82,7.11-72.03,7.72
	c-16.08,2.77-32.06,2.58-47.94-0.56c10.54-4.96,21.07-9.91,31.61-14.87c64.42-21.34,130.1-37.36,197.05-48.05
	c45.29-10.74,91.08-18.37,137.36-22.89c25.72-7,51.54-8.63,77.48-4.91c-16.35,5.17-32.71,10.35-49.06,15.52
	c-55.44,15.05-111.63,25.82-168.58,32.3c-25.07,5.4-50.37,8.11-75.9,8.15c-12.62,6.89-20.73,5.75-24.33-3.43
	c6.8-3.48,13.61-6.97,20.41-10.45c33.64-11.62,68.2-18.19,103.66-19.69c28.86-5.37,57.84-6.33,86.96-2.89
	c28.79-7.74,50.65,0.66,65.58,25.2c-20.36,12.49-40.72,24.99-61.08,37.48c-56,20.54-113.53,33.73-172.57,39.59
	c-35.76,6.35-71.77,10.34-108.03,11.97c-35.06,3.47-70.2,5.18-105.43,5.14c31.81-6.47,64.1-8.73,96.86-6.78
	c56.14-2.05,112.3-3.21,168.47-3.49c45.44-0.87,90.88-0.67,136.32,0.57c27.53-7.68,51.21-3.65,71.06,12.07
	c-13.22,5.67-26.44,11.33-39.66,17c-45.26,15.34-91.55,25.86-138.87,31.57c-30.73,9-61.77,10.73-93.11,5.19
	c-38.85,3.86-71.66-9.87-98.42-41.19c-6.57-23.65-13.13-47.3-19.7-70.95c8.73-27.33,17.47-54.65,26.2-81.98
	c12.49-28.74,32.04-48.53,58.65-59.37c8.66-8.94,17.7-9.88,27.13-2.82c0.86,13.33,1.73,26.67,2.59,40
	c-0.76,44.04-9.7,86.05-26.82,126.02c-3.65,21.91-12.55,41.08-26.71,57.52c-4.39,11.75-12.24,19.5-23.57,23.26
	c-1.19-3.29-2.38-6.58-3.57-9.88c-1.99-14.63-2.99-29.32-3-44.07c-0.54-19.34-0.7-38.73,2.14-57.9c0.03,4.39,0.05,8.79,0.08,13.18
	c-1.21,19.3-4.38,38.24-9.52,56.83c-2,12.67-5.55,24.87-10.66,36.59c-2.84,10.83-7.79,20.6-14.84,29.32"/>
<path class="st22" d="M2574.89,4288.44c-2.14-0.6-3.9-0.04-5.3,1.66c-6.42,11.13-12.36,22.52-17.84,34.15
	c-23.87,46.71-47.34,93.61-71.18,140.33c-1.25-2.37-1.47-4.94-0.67-7.71c0.15-8.72,0.15-17.44-0.01-26.16
	c-0.24-6.67-0.48-13.34-0.72-20.01c0.55-5.26-0.47-10.02-3.05-14.28c8.31-4.97,16.64-8.29,25.61-11.76
	c7.25-3.42,14.81-5.8,22.7-7.14c7.18-2.41,14.54-3.46,22.1-3.15c-0.95,9.76-7.16,16.17-18.63,19.22
	c-13.71,4.41-27.43,8.81-41.14,13.22c-31.44,7.19-62.65,6.94-93.66-0.75c-11.17-3.49-15.15-9.35-11.94-17.59
	c0.21-8.28,5.3-13.34,15.27-15.17c19.95-6.56,39.7-5.98,59.26,1.74c40.15,6.85,78.61,19.54,115.39,38.07
	c30.24,11.58,58.89,26.11,85.94,43.6c-10.03,0.56-19.98-0.26-29.85-2.46c-29.72-3.72-59.41-7.7-89.07-11.94
	c-22.1-3.55-44.2-7.1-66.3-10.65c-20.01,1.51-34.29-5.27-42.84-20.36c9.14-10.88,21.52-15.61,37.15-14.19
	c54.2-13.32,109.22-22.24,165.08-26.78c48.44-2.43,96.88-4.86,145.32-7.29c47.9-16.82,75.44-8.25,82.63,25.71
	c-21.6,14.26-44.58,25.82-68.93,34.7c-15.73,6.21-31.82,11.15-48.28,14.85c3.36-3.57,7.43-6.14,12.23-7.7
	c16.09-9.07,33-16.42,50.73-22.04c17.72-5.86,35.44-11.72,53.16-17.58c17.33-9.44,34.96-11.85,52.91-7.23
	c-13.42,6.99-26.85,13.98-40.27,20.97c-53.41,21.23-108.17,37.73-164.28,49.51c-27.38,8.41-55.26,14.17-83.65,17.27
	c-14.14,3.65-28.41,4.83-42.82,3.55c9.64-16.22,23.69-28.05,42.12-35.5c31.79-16.57,65.32-26.79,100.6-30.67
	c30.86-7.63,62.21-9.88,94.03-6.75c17.85-3.13,30.01,1.97,36.49,15.31c-5.91,3.16-11.81,6.32-17.72,9.47
	c-39.17,13.83-79.1,24.87-119.8,33.12c-35.45,9.65-71.35,17.14-107.7,22.48c-27.05,7.27-54.5,10.44-82.36,9.52
	c3.13-17.58,11.5-32.49,25.1-44.73c26.02-39.87,61.59-70.18,106.71-90.93c51.03-30.16,105.42-45.98,163.17-47.45
	c41.98-9.23,83.36-6.05,124.15,9.53c14.23,10.32,28.45,20.63,42.68,30.95c13.48,36.02,0.51,62.26-38.92,78.7
	c-22.27,10.76-44.53,21.52-66.8,32.28c-21.26,12.11-42.69,14.82-64.28,8.15c-0.61-5.26,1.11-9.62,5.16-13.09
	c22.27-16.87,47.26-28.78,74.97-35.71c51.95-19.94,105.41-33.81,160.36-41.61c12.65-1.55,19.35,3.23,20.1,14.36"/>
</svg>
